<svg width="16" height="16" viewBox="0 0 16 16" fill="none" xmlns="http://www.w3.org/2000/svg">
<path d="M2 6.07328V9.91995C2 11.3333 2 11.3333 3.33333 12.2333L7 14.3533C7.55333 14.6733 8.45333 14.6733 9 14.3533L12.6667 12.2333C14 11.3333 14 11.3333 14 9.92662V6.07328C14 4.66662 14 4.66662 12.6667 3.76662L9 1.64662C8.45333 1.32662 7.55333 1.32662 7 1.64662L3.33333 3.76662C2 4.66662 2 4.66662 2 6.07328Z" stroke="#0D0D0D" stroke-width="1.33" stroke-linecap="round" stroke-linejoin="round"/>
<path d="M10.533 8.95338C9.86427 9.62216 8.90548 9.82931 8.05915 9.56298L6.52628 11.0899C6.41975 11.2024 6.20077 11.2734 6.04097 11.2497L5.33076 11.155C5.09403 11.1254 4.88097 10.9005 4.84546 10.6697L4.75076 9.95951C4.72709 9.80563 4.80403 9.58665 4.91056 9.4742L6.43751 7.94725C6.1771 7.10092 6.37832 6.14214 7.0471 5.47336C8.00588 4.51458 9.56834 4.51458 10.533 5.47336C11.4918 6.42622 11.4918 7.98868 10.533 8.95338Z" stroke="#0D0D0D" stroke-width="1.33" stroke-miterlimit="10" stroke-linecap="round" stroke-linejoin="round"/>
<path d="M7.08253 10.5336L6.57947 10.0247" stroke="#0D0D0D" stroke-width="1.33" stroke-miterlimit="10" stroke-linecap="round" stroke-linejoin="round"/>
<path d="M8.82526 7.23098H8.83058" stroke="#0D0D0D" stroke-width="1.33" stroke-linecap="round" stroke-linejoin="round"/>
</svg>
