<svg width="16" height="16" viewBox="0 0 16 16" fill="none" xmlns="http://www.w3.org/2000/svg">
<path d="M8 8C9.65685 8 11 6.65685 11 5C11 3.34315 9.65685 2 8 2C6.34315 2 5 3.34315 5 5C5 6.65685 6.34315 8 8 8Z" stroke="#0D0D0D" stroke-width="1.33333" stroke-linecap="round" stroke-linejoin="round"/>
<path d="M9.66662 10.3334H6.3333C5.40292 10.3334 4.93773 10.3334 4.5592 10.4482C3.70693 10.7067 3.03999 11.3737 2.78145 12.2259C2.70553 12.4762 2.6798 12.7644 2.67109 13.1999C2.6656 13.4744 2.66285 13.6116 2.71655 13.7208C2.76316 13.8155 2.84173 13.8957 2.93552 13.9442C3.04356 14 3.18458 14 3.46663 14H12.5333C12.8153 14 12.9564 14 13.0644 13.9442C13.1582 13.8957 13.2368 13.8155 13.2834 13.7208C13.3371 13.6116 13.3343 13.4744 13.3288 13.1999C13.3201 12.7644 13.2944 12.4762 13.2185 12.2259C12.9599 11.3737 12.293 10.7067 11.4407 10.4482C11.0622 10.3334 10.597 10.3334 9.66662 10.3334Z" stroke="#0D0D0D" stroke-width="1.33333" stroke-linecap="round" stroke-linejoin="round"/>
</svg>
