<svg width="24" height="24" viewBox="0 0 24 24" fill="none" xmlns="http://www.w3.org/2000/svg">
<rect width="24" height="24" rx="4" fill="white"/>
<path d="M14 12.45V14.55C14 16.3 13.3 17 11.55 17H9.45C7.7 17 7 16.3 7 14.55V12.45C7 10.7 7.7 10 9.45 10H11.55C13.3 10 14 10.7 14 12.45Z" fill="#0D0D0D" stroke="#0D0D0D" stroke-width="0.9975" stroke-linecap="round" stroke-linejoin="round"/>
<path d="M17 9.45V11.55C17 13.3 16.3 14 14.55 14H14V12.45C14 10.7 13.3 10 11.55 10H10V9.45C10 7.7 10.7 7 12.45 7H14.55C16.3 7 17 7.7 17 9.45Z" stroke="#0D0D0D" stroke-width="0.9975" stroke-linecap="round" stroke-linejoin="round"/>
</svg>
