<svg width="16" height="16" viewBox="0 0 16 16" fill="none" xmlns="http://www.w3.org/2000/svg">
<g clip-path="url(#clip0_2907_7879)">
<path d="M7.99992 14.6667C11.6818 14.6667 14.6666 11.6819 14.6666 8.00001C14.6666 4.31811 11.6818 1.33334 7.99992 1.33334C4.31802 1.33334 1.33325 4.31811 1.33325 8.00001C1.33325 11.6819 4.31802 14.6667 7.99992 14.6667Z" stroke="#0D0D0D" stroke-width="1.33333" stroke-linecap="round" stroke-linejoin="round"/>
<path d="M6.33325 5.9769C6.33325 5.65871 6.33325 5.49961 6.39975 5.4108C6.45769 5.33339 6.54639 5.28497 6.64284 5.27808C6.75351 5.27017 6.88733 5.35621 7.15499 5.52827L10.3021 7.55138C10.5343 7.70069 10.6504 7.77534 10.6905 7.87027C10.7256 7.95321 10.7256 8.04681 10.6905 8.12975C10.6504 8.22468 10.5343 8.29933 10.3021 8.44864L7.15499 10.4718C6.88734 10.6438 6.75351 10.7298 6.64284 10.7219C6.54639 10.7151 6.45769 10.6666 6.39975 10.5892C6.33325 10.5004 6.33325 10.3413 6.33325 10.0231V5.9769Z" stroke="#0D0D0D" stroke-width="1.33333" stroke-linecap="round" stroke-linejoin="round"/>
</g>
<defs>
<clipPath id="clip0_2907_7879">
<rect width="16" height="16" fill="white"/>
</clipPath>
</defs>
</svg>
