<svg width="128" height="128" viewBox="0 0 128 128" fill="none" xmlns="http://www.w3.org/2000/svg">
<g clip-path="url(#clip0_3985_3409)">
<path d="M19.6875 95L19.6875 44.5C19.6875 42.3944 21.3944 40.6875 23.5 40.6875L99.5 40.6875C101.606 40.6875 103.312 42.3944 103.312 44.5L103.312 95C103.312 97.1056 101.606 98.8125 99.5 98.8125L23.5 98.8125C21.3944 98.8125 19.6875 97.1056 19.6875 95Z" fill="#0D0D0D" stroke="#0D0D0D" stroke-width="0.375"/>
<path d="M17.9375 95L17.9375 44.5C17.9375 42.3944 19.6444 40.6875 21.75 40.6875L98 40.6875C100.106 40.6875 101.812 42.3944 101.812 44.5L101.812 95C101.812 97.1056 100.106 98.8125 98 98.8125L21.75 98.8125L21.5537 98.8076C19.5393 98.7055 17.9375 97.0398 17.9375 95Z" fill="white" stroke="#0D0D0D" stroke-width="0.375"/>
<circle cx="1.25" cy="1.25" r="1.0625" transform="matrix(-1 0 0 1 60 42)" fill="#0D0D0D" stroke="#0D0D0D" stroke-width="0.375"/>
<circle cx="1.25" cy="1.25" r="1.0625" transform="matrix(-1 0 0 1 63.5 42)" fill="#0D0D0D" stroke="#0D0D0D" stroke-width="0.375"/>
<path d="M20.6875 84.25L20.6875 46C20.6875 44.4467 21.9467 43.1875 23.5 43.1875L49.8955 43.1875C50.5917 43.1877 51.156 43.7521 51.1562 44.4482C51.1562 45.3517 51.8886 46.0847 52.792 46.085L66.958 46.085C67.8614 46.0847 68.5937 45.3517 68.5937 44.4482C68.594 43.7521 69.1583 43.1877 69.8545 43.1875L96.25 43.1875C97.8033 43.1875 99.0625 44.4467 99.0625 46L99.0625 84.25C99.0625 85.8033 97.8033 87.0625 96.25 87.0625L23.5 87.0625C21.9467 87.0625 20.6875 85.8033 20.6875 84.25Z" fill="white" stroke="#0D0D0D" stroke-width="0.375"/>
<mask id="path-6-inside-1_3985_3409" fill="white">
<path d="M23.4897 43.0449C21.8329 43.045 20.4897 44.3881 20.4897 46.0449V84.1768C20.4899 85.7926 21.7676 87.1087 23.3677 87.1729C22.5822 86.6319 22.066 85.728 22.0659 84.7021V46.5703C22.0659 44.9135 23.4091 43.5703 25.0659 43.5703H51.0259C50.761 43.2494 50.3602 43.0451 49.9116 43.0449H23.4897ZM69.8755 43.0449C69.0777 43.045 68.4312 43.6914 68.4312 44.4893C68.4312 45.2872 67.7838 45.9346 66.9858 45.9346H53.2632C53.5281 46.255 53.9283 46.4598 54.3765 46.46H68.562C69.3599 46.46 70.0073 45.8126 70.0073 45.0146C70.0074 44.2168 70.6538 43.5704 71.4517 43.5703H97.8735C97.9148 43.5703 97.9558 43.5716 97.9966 43.5732C97.5134 43.2403 96.9284 43.045 96.2974 43.0449H69.8755Z"/>
</mask>
<path d="M23.4897 43.0449C21.8329 43.045 20.4897 44.3881 20.4897 46.0449V84.1768C20.4899 85.7926 21.7676 87.1087 23.3677 87.1729C22.5822 86.6319 22.066 85.728 22.0659 84.7021V46.5703C22.0659 44.9135 23.4091 43.5703 25.0659 43.5703H51.0259C50.761 43.2494 50.3602 43.0451 49.9116 43.0449H23.4897ZM69.8755 43.0449C69.0777 43.045 68.4312 43.6914 68.4312 44.4893C68.4312 45.2872 67.7838 45.9346 66.9858 45.9346H53.2632C53.5281 46.255 53.9283 46.4598 54.3765 46.46H68.562C69.3599 46.46 70.0073 45.8126 70.0073 45.0146C70.0074 44.2168 70.6538 43.5704 71.4517 43.5703H97.8735C97.9148 43.5703 97.9558 43.5716 97.9966 43.5732C97.5134 43.2403 96.9284 43.045 96.2974 43.0449H69.8755Z" fill="#0D0D0D"/>
<path d="M23.4897 43.0449L23.4897 42.6699H23.4897V43.0449ZM20.4897 46.0449H20.8647V46.0449H20.4897ZM20.4897 84.1768L20.1147 84.1768V84.1768H20.4897ZM23.3677 87.1729L23.5804 86.864L24.6484 87.5995L23.3527 87.5476L23.3677 87.1729ZM22.0659 84.7021L21.6909 84.7022V84.7021H22.0659ZM22.0659 46.5703H22.4409V46.5703H22.0659ZM25.0659 43.5703L25.0659 43.1953H25.0659V43.5703ZM51.0259 43.5703L51.3151 43.3316L51.8216 43.9453H51.0259V43.5703ZM49.9116 43.0449V42.6699L49.9117 42.6699L49.9116 43.0449ZM69.8755 43.0449L69.8754 42.6699H69.8755V43.0449ZM68.4312 44.4893H68.0562V44.4892L68.4312 44.4893ZM66.9858 45.9346V46.3096V46.3096V45.9346ZM53.2632 45.9346L52.9742 46.1735L52.4665 45.5596H53.2632V45.9346ZM54.3765 46.46V46.835H54.3764L54.3765 46.46ZM68.562 46.46V46.835V46.835V46.46ZM70.0073 45.0146H69.6323V45.0146L70.0073 45.0146ZM71.4517 43.5703L71.4516 43.1953H71.4517V43.5703ZM97.8735 43.5703V43.1953H97.8736L97.8735 43.5703ZM97.9966 43.5732L98.2094 43.2645L99.2775 44.0004L97.9814 43.9479L97.9966 43.5732ZM96.2974 43.0449V42.6699H96.2974L96.2974 43.0449ZM23.4897 43.0449L23.4898 43.4199C22.04 43.42 20.8647 44.5952 20.8647 46.0449H20.4897H20.1147C20.1147 44.181 21.6259 42.67 23.4897 42.6699L23.4897 43.0449ZM20.4897 46.0449H20.8647V84.1768H20.4897H20.1147V46.0449H20.4897ZM20.4897 84.1768L20.8647 84.1767C20.8649 85.5902 21.9827 86.742 23.3827 86.7982L23.3677 87.1729L23.3527 87.5476C21.5525 87.4754 20.1149 85.9949 20.1147 84.1768L20.4897 84.1768ZM23.3677 87.1729L23.155 87.4817C22.2727 86.8741 21.691 85.8571 21.6909 84.7022L22.0659 84.7021L22.4409 84.7021C22.441 85.5989 22.8917 86.3897 23.5804 86.864L23.3677 87.1729ZM22.0659 84.7021H21.6909V46.5703H22.0659H22.4409V84.7021H22.0659ZM22.0659 46.5703H21.6909C21.6909 44.7064 23.202 43.1953 25.0659 43.1953L25.0659 43.5703L25.0659 43.9453C23.6162 43.9453 22.4409 45.1206 22.4409 46.5703H22.0659ZM25.0659 43.5703V43.1953H51.0259V43.5703V43.9453H25.0659V43.5703ZM51.0259 43.5703L50.7367 43.809C50.54 43.5708 50.2437 43.42 49.9115 43.4199L49.9116 43.0449L49.9117 42.6699C50.4768 42.6701 50.9819 42.928 51.3151 43.3316L51.0259 43.5703ZM49.9116 43.0449V43.4199H23.4897V43.0449V42.6699H49.9116V43.0449ZM69.8755 43.0449L69.8755 43.4199C69.2847 43.42 68.8062 43.8985 68.8062 44.4893L68.4312 44.4893L68.0562 44.4892C68.0562 43.4843 68.8706 42.67 69.8754 42.6699L69.8755 43.0449ZM68.4312 44.4893H68.8062C68.8062 45.4943 67.9909 46.3096 66.9858 46.3096V45.9346V45.5596C67.5767 45.5596 68.0562 45.0801 68.0562 44.4893H68.4312ZM66.9858 45.9346V46.3096H53.2632V45.9346V45.5596H66.9858V45.9346ZM53.2632 45.9346L53.5522 45.6956C53.7493 45.9339 54.0453 46.0849 54.3766 46.085L54.3765 46.46L54.3764 46.835C53.8112 46.8348 53.307 46.576 52.9742 46.1735L53.2632 45.9346ZM54.3765 46.46V46.085H68.562V46.46V46.835H54.3765V46.46ZM68.562 46.46V46.085C69.1528 46.085 69.6323 45.6055 69.6323 45.0146H70.0073H70.3823C70.3823 46.0197 69.5671 46.835 68.562 46.835V46.46ZM70.0073 45.0146L69.6323 45.0146C69.6324 44.0097 70.4467 43.1954 71.4516 43.1953L71.4517 43.5703L71.4517 43.9453C70.8609 43.9454 70.3824 44.4239 70.3823 45.0147L70.0073 45.0146ZM71.4517 43.5703V43.1953H97.8735V43.5703V43.9453H71.4517V43.5703ZM97.8735 43.5703L97.8736 43.1953C97.9222 43.1953 97.9689 43.1968 98.0118 43.1985L97.9966 43.5732L97.9814 43.9479C97.9426 43.9464 97.9074 43.9453 97.8735 43.9453L97.8735 43.5703ZM97.9966 43.5732L97.7838 43.882C97.361 43.5907 96.8498 43.42 96.2973 43.4199L96.2974 43.0449L96.2974 42.6699C97.0071 42.67 97.6659 42.89 98.2094 43.2645L97.9966 43.5732ZM96.2974 43.0449V43.4199H69.8755V43.0449V42.6699H96.2974V43.0449Z" fill="#0D0D0D" mask="url(#path-6-inside-1_3985_3409)"/>
<path d="M1.6875 97.25L1.6875 94.75C1.6875 93.749 2.49898 92.9375 3.5 92.9375L101.5 92.9375C102.501 92.9375 103.312 93.749 103.312 94.75L103.312 97.25C103.312 98.251 102.501 99.0625 101.5 99.0625L3.5 99.0625C2.49898 99.0625 1.6875 98.251 1.6875 97.25Z" fill="#0D0D0D" stroke="#0D0D0D" stroke-width="0.375"/>
<path d="M0.1875 96.75L0.1875 94.75C0.187502 93.749 0.998985 92.9375 2 92.9375L101.812 92.9375L101.812 96.75C101.812 97.751 101.001 98.5625 100 98.5625L2 98.5625C0.998984 98.5625 0.1875 97.751 0.1875 96.75Z" fill="#0D0D0D" stroke="#0D0D0D" stroke-width="0.375"/>
<rect x="-0.1875" y="-0.1875" width="2.125" height="6.875" rx="1.0625" transform="matrix(4.37114e-08 -1 -1 -1.80732e-08 99.875 96.625)" fill="white" stroke="#0D0D0D" stroke-width="0.375"/>
<path d="M0.1875 97.25L0.1875 94.75C0.187502 93.749 0.998985 92.9375 2 92.9375L29.5732 92.9375C30.0393 92.9375 30.488 93.1168 30.8252 93.4385L31.5723 94.1523C31.9792 94.5408 32.5205 94.7578 33.083 94.7578L47.7275 94.7578C48.2417 94.7578 48.7399 94.5765 49.1338 94.2461L50.1875 93.3613C50.5138 93.0876 50.9266 92.9376 51.3525 92.9375L79 92.9375C80.001 92.9375 80.8125 93.749 80.8125 94.75L80.8125 97.25C80.8125 98.251 80.001 99.0625 79 99.0625L2 99.0625C0.998984 99.0625 0.1875 98.251 0.1875 97.25Z" fill="white" stroke="#0D0D0D" stroke-width="0.375"/>
<mask id="path-12-outside-2_3985_3409" maskUnits="userSpaceOnUse" x="71.5" y="21.0029" width="55" height="58" fill="black">
<rect fill="white" x="71.5" y="21.0029" width="55" height="58"/>
<path fill-rule="evenodd" clip-rule="evenodd" d="M99 75.0029C113.636 75.0029 125.5 63.1385 125.5 48.5029C125.5 33.8674 113.636 22.0029 99 22.0029C84.3645 22.0029 72.5 33.8674 72.5 48.5029C72.5 53.7757 74.0399 58.6888 76.6946 62.8169L72.707 77.3838C75.9922 75.8751 81.8721 73.2097 85.8373 71.508C89.7153 73.7316 94.2092 75.0029 99 75.0029Z"/>
</mask>
<path fill-rule="evenodd" clip-rule="evenodd" d="M99 75.0029C113.636 75.0029 125.5 63.1385 125.5 48.5029C125.5 33.8674 113.636 22.0029 99 22.0029C84.3645 22.0029 72.5 33.8674 72.5 48.5029C72.5 53.7757 74.0399 58.6888 76.6946 62.8169L72.707 77.3838C75.9922 75.8751 81.8721 73.2097 85.8373 71.508C89.7153 73.7316 94.2092 75.0029 99 75.0029Z" fill="#0D0D0D"/>
<path d="M76.6946 62.8169L77.0563 62.916L77.1004 62.7547L77.01 62.6141L76.6946 62.8169ZM72.707 77.3838L72.3453 77.2848L72.1331 78.06L72.8635 77.7246L72.707 77.3838ZM85.8373 71.508L86.0239 71.1827L85.8615 71.0896L85.6894 71.1634L85.8373 71.508ZM125.5 48.5029H125.125C125.125 62.9314 113.428 74.6279 99 74.6279V75.0029V75.3779C113.843 75.3779 125.875 63.3456 125.875 48.5029H125.5ZM99 22.0029V22.3779C113.428 22.3779 125.125 34.0745 125.125 48.5029H125.5H125.875C125.875 33.6603 113.843 21.6279 99 21.6279V22.0029ZM72.5 48.5029H72.875C72.875 34.0745 84.5716 22.3779 99 22.3779V22.0029V21.6279C84.1573 21.6279 72.125 33.6603 72.125 48.5029H72.5ZM76.6946 62.8169L77.01 62.6141C74.3931 58.5446 72.875 53.7016 72.875 48.5029H72.5H72.125C72.125 53.8497 73.6868 58.8329 76.3792 63.0198L76.6946 62.8169ZM76.6946 62.8169L76.3329 62.7179L72.3453 77.2848L72.707 77.3838L73.0687 77.4828L77.0563 62.916L76.6946 62.8169ZM72.707 77.3838L72.8635 77.7246C76.1481 76.2161 82.0245 73.5523 85.9852 71.8526L85.8373 71.508L85.6894 71.1634C81.7197 72.867 75.8362 75.534 72.5505 77.043L72.707 77.3838ZM99 75.0029V74.6279C94.2764 74.6279 89.8466 73.3746 86.0239 71.1827L85.8373 71.508L85.6508 71.8333C89.5841 74.0886 94.142 75.3779 99 75.3779V75.0029Z" fill="#0D0D0D" mask="url(#path-12-outside-2_3985_3409)"/>
<mask id="path-14-outside-3_3985_3409" maskUnits="userSpaceOnUse" x="68.5" y="18.75" width="55" height="58" fill="black">
<rect fill="white" x="68.5" y="18.75" width="55" height="58"/>
<path fill-rule="evenodd" clip-rule="evenodd" d="M96 72.75C110.636 72.75 122.5 60.8855 122.5 46.25C122.5 31.6145 110.636 19.75 96 19.75C81.3645 19.75 69.5 31.6145 69.5 46.25C69.5 51.5227 71.0399 56.4358 73.6946 60.564L69.707 75.1309C72.9922 73.6221 78.8721 70.9567 82.8373 69.2551C86.7153 71.4787 91.2092 72.75 96 72.75Z"/>
</mask>
<path fill-rule="evenodd" clip-rule="evenodd" d="M96 72.75C110.636 72.75 122.5 60.8855 122.5 46.25C122.5 31.6145 110.636 19.75 96 19.75C81.3645 19.75 69.5 31.6145 69.5 46.25C69.5 51.5227 71.0399 56.4358 73.6946 60.564L69.707 75.1309C72.9922 73.6221 78.8721 70.9567 82.8373 69.2551C86.7153 71.4787 91.2092 72.75 96 72.75Z" fill="white"/>
<path d="M73.6946 60.564L74.0563 60.663L74.1004 60.5018L74.01 60.3612L73.6946 60.564ZM69.707 75.1309L69.3453 75.0318L69.1331 75.8071L69.8635 75.4716L69.707 75.1309ZM82.8373 69.2551L83.0239 68.9297L82.8615 68.8366L82.6894 68.9105L82.8373 69.2551ZM122.5 46.25H122.125C122.125 60.6784 110.428 72.375 96 72.375V72.75V73.125C110.843 73.125 122.875 61.0927 122.875 46.25H122.5ZM96 19.75V20.125C110.428 20.125 122.125 31.8216 122.125 46.25H122.5H122.875C122.875 31.4073 110.843 19.375 96 19.375V19.75ZM69.5 46.25H69.875C69.875 31.8216 81.5716 20.125 96 20.125V19.75V19.375C81.1573 19.375 69.125 31.4073 69.125 46.25H69.5ZM73.6946 60.564L74.01 60.3612C71.3931 56.2917 69.875 51.4487 69.875 46.25H69.5H69.125C69.125 51.5968 70.6868 56.58 73.3792 60.7668L73.6946 60.564ZM73.6946 60.564L73.3329 60.465L69.3453 75.0318L69.707 75.1309L70.0687 75.2299L74.0563 60.663L73.6946 60.564ZM69.707 75.1309L69.8635 75.4716C73.1481 73.9632 79.0245 71.2994 82.9852 69.5997L82.8373 69.2551L82.6894 68.9105C78.7197 70.6141 72.8362 73.2811 69.5505 74.7901L69.707 75.1309ZM96 72.75V72.375C91.2764 72.375 86.8466 71.1217 83.0239 68.9297L82.8373 69.2551L82.6508 69.5804C86.5841 71.8357 91.142 73.125 96 73.125V72.75Z" fill="#0D0D0D" mask="url(#path-14-outside-3_3985_3409)"/>
<circle cx="21.25" cy="21.25" r="21.0625" transform="matrix(-1 0 0 1 117.25 25)" fill="white" stroke="#0D0D0D" stroke-width="0.375"/>
<mask id="path-17-inside-4_3985_3409" fill="white">
<path d="M96.0002 25C84.2642 25 74.7502 34.5139 74.7502 46.25C74.7502 54.7039 79.6874 62.0034 86.8352 65.4258C80.922 61.6525 77.0002 55.0346 77.0002 47.5C77.0002 35.7639 86.5142 26.25 98.2502 26.25C101.531 26.25 104.637 26.9938 107.411 28.3213C104.115 26.2188 100.2 25 96.0002 25Z"/>
</mask>
<path d="M96.0002 25C84.2642 25 74.7502 34.5139 74.7502 46.25C74.7502 54.7039 79.6874 62.0034 86.8352 65.4258C80.922 61.6525 77.0002 55.0346 77.0002 47.5C77.0002 35.7639 86.5142 26.25 98.2502 26.25C101.531 26.25 104.637 26.9938 107.411 28.3213C104.115 26.2188 100.2 25 96.0002 25Z" fill="#0D0D0D"/>
<path d="M96.0002 25V24.625H96.0002L96.0002 25ZM86.8352 65.4258L87.0369 65.1097L86.6733 65.764L86.8352 65.4258ZM98.2502 26.25V25.875H98.2502L98.2502 26.25ZM107.411 28.3213L107.613 28.0051L107.25 28.6596L107.411 28.3213ZM96.0002 25V25.375C84.4713 25.375 75.1252 34.7211 75.1252 46.25H74.7502H74.3752C74.3752 34.3068 84.0571 24.625 96.0002 24.625V25ZM74.7502 46.25H75.1252C75.1252 54.5541 79.9745 61.7251 86.9971 65.0876L86.8352 65.4258L86.6733 65.764C79.4002 62.2817 74.3752 54.8537 74.3752 46.25H74.7502ZM86.8352 65.4258L86.6335 65.7419C80.6169 61.9027 76.6252 55.168 76.6252 47.5H77.0002H77.3752C77.3752 54.9012 81.2271 61.4023 87.0369 65.1097L86.8352 65.4258ZM77.0002 47.5H76.6252C76.6252 35.5568 86.3071 25.875 98.2502 25.875V26.25V26.625C86.7213 26.625 77.3752 35.9711 77.3752 47.5H77.0002ZM98.2502 26.25L98.2502 25.875C101.588 25.875 104.75 26.6319 107.573 27.983L107.411 28.3213L107.25 28.6596C104.525 27.3557 101.473 26.625 98.2502 26.625L98.2502 26.25ZM107.411 28.3213L107.21 28.6375C103.972 26.5722 100.126 25.375 96.0002 25.375L96.0002 25L96.0002 24.625C100.274 24.625 104.258 25.8653 107.613 28.0051L107.411 28.3213Z" fill="#0D0D0D" mask="url(#path-17-inside-4_3985_3409)"/>
<circle cx="95.75" cy="58.5" r="1.8125" fill="#B5FF00" stroke="#102000" stroke-width="0.375"/>
<mask id="path-20-inside-5_3985_3409" fill="white">
<path d="M94.7456 33.0771C96.5107 32.8599 98.3055 33.1049 99.9341 33.7861C101.562 34.4674 102.964 35.5588 103.985 36.9414C105.006 38.3242 105.61 39.9463 105.729 41.6309C105.848 43.3156 105.478 45.0002 104.661 46.5C103.843 47.9996 102.607 49.2582 101.089 50.1396C100.06 50.7371 98.9269 51.1447 97.7495 51.3486V53.25C97.7494 54.3545 96.854 55.25 95.7495 55.25C94.6452 55.2497 93.7496 54.3543 93.7495 53.25V49.5C93.7495 48.3956 94.6452 47.5003 95.7495 47.5C95.7987 47.5 95.8477 47.5034 95.896 47.5068C95.9401 47.5037 95.9849 47.5002 96.0298 47.5C97.1204 47.4948 98.1769 47.2059 99.0815 46.6807C99.9848 46.1562 100.692 45.4236 101.149 44.585C101.605 43.7486 101.803 42.8258 101.739 41.9131C101.674 41 101.347 40.1018 100.768 39.3184C100.188 38.5326 99.371 37.8869 98.3901 37.4766C97.4082 37.0659 96.3149 36.914 95.2349 37.0469C94.1551 37.1798 93.1529 37.5887 92.3345 38.208C91.5176 38.8262 90.9204 39.6246 90.5806 40.499C90.1805 41.5283 89.0211 42.0393 87.9917 41.6396C86.9624 41.2396 86.4523 40.0802 86.8521 39.0508C87.4677 37.4664 88.5289 36.0717 89.9204 35.0186C91.3117 33.9657 92.9806 33.2945 94.7456 33.0771Z"/>
</mask>
<path d="M94.7456 33.0771C96.5107 32.8599 98.3055 33.1049 99.9341 33.7861C101.562 34.4674 102.964 35.5588 103.985 36.9414C105.006 38.3242 105.61 39.9463 105.729 41.6309C105.848 43.3156 105.478 45.0002 104.661 46.5C103.843 47.9996 102.607 49.2582 101.089 50.1396C100.06 50.7371 98.9269 51.1447 97.7495 51.3486V53.25C97.7494 54.3545 96.854 55.25 95.7495 55.25C94.6452 55.2497 93.7496 54.3543 93.7495 53.25V49.5C93.7495 48.3956 94.6452 47.5003 95.7495 47.5C95.7987 47.5 95.8477 47.5034 95.896 47.5068C95.9401 47.5037 95.9849 47.5002 96.0298 47.5C97.1204 47.4948 98.1769 47.2059 99.0815 46.6807C99.9848 46.1562 100.692 45.4236 101.149 44.585C101.605 43.7486 101.803 42.8258 101.739 41.9131C101.674 41 101.347 40.1018 100.768 39.3184C100.188 38.5326 99.371 37.8869 98.3901 37.4766C97.4082 37.0659 96.3149 36.914 95.2349 37.0469C94.1551 37.1798 93.1529 37.5887 92.3345 38.208C91.5176 38.8262 90.9204 39.6246 90.5806 40.499C90.1805 41.5283 89.0211 42.0393 87.9917 41.6396C86.9624 41.2396 86.4523 40.0802 86.8521 39.0508C87.4677 37.4664 88.5289 36.0717 89.9204 35.0186C91.3117 33.9657 92.9806 33.2945 94.7456 33.0771Z" fill="#B5FF00"/>
<path d="M94.7456 33.0771L94.6998 32.705L94.6998 32.705L94.7456 33.0771ZM99.9341 33.7861L100.079 33.4402L100.079 33.4402L99.9341 33.7861ZM103.985 36.9414L104.287 36.7186L104.286 36.7186L103.985 36.9414ZM105.729 41.6309L106.103 41.6044L106.103 41.6044L105.729 41.6309ZM104.661 46.5L104.99 46.6795L104.99 46.6795L104.661 46.5ZM101.089 50.1396L101.278 50.464L101.278 50.464L101.089 50.1396ZM97.7495 51.3486L97.6855 50.9791L97.3745 51.033V51.3486H97.7495ZM97.7495 53.25L98.1245 53.25V53.25H97.7495ZM95.7495 55.25L95.7494 55.625H95.7495V55.25ZM93.7495 53.25H93.3745V53.25L93.7495 53.25ZM95.7495 47.5V47.125H95.7494L95.7495 47.5ZM95.896 47.5068L95.869 47.8809L95.8957 47.8828L95.9224 47.8809L95.896 47.5068ZM96.0298 47.5L96.0315 47.875H96.0316L96.0298 47.5ZM99.0815 46.6807L99.2698 47.005L99.2698 47.005L99.0815 46.6807ZM101.149 44.585L101.478 44.7645L101.478 44.7645L101.149 44.585ZM101.739 41.9131L102.113 41.8867L102.113 41.8866L101.739 41.9131ZM100.768 39.3184L101.07 39.0956L101.07 39.0956L100.768 39.3184ZM98.3901 37.4766L98.5349 37.1306L98.5348 37.1306L98.3901 37.4766ZM95.2349 37.0469L95.1891 36.6747L95.189 36.6747L95.2349 37.0469ZM92.3345 38.208L92.1082 37.909L92.1082 37.909L92.3345 38.208ZM90.5806 40.499L90.9301 40.6349L90.9301 40.6349L90.5806 40.499ZM87.9917 41.6396L87.8558 41.9892L87.856 41.9892L87.9917 41.6396ZM86.8521 39.0508L86.5025 38.915L86.5025 38.915L86.8521 39.0508ZM89.9204 35.0186L89.6941 34.7195L89.6941 34.7195L89.9204 35.0186ZM94.7456 33.0771L94.7914 33.4493C96.4923 33.24 98.2215 33.4763 99.7894 34.1321L99.9341 33.7861L100.079 33.4402C98.3896 32.7336 96.529 32.4798 94.6998 32.705L94.7456 33.0771ZM99.9341 33.7861L99.7893 34.1321C101.357 34.788 102.703 35.8376 103.683 37.1642L103.985 36.9414L104.286 36.7186C103.224 35.2801 101.768 34.1469 100.079 33.4402L99.9341 33.7861ZM103.985 36.9414L103.683 37.1642C104.663 38.4909 105.241 40.0452 105.355 41.6573L105.729 41.6309L106.103 41.6044C105.979 39.8475 105.349 38.1575 104.287 36.7186L103.985 36.9414ZM105.729 41.6309L105.355 41.6573C105.469 43.2696 105.115 44.8829 104.331 46.3205L104.661 46.5L104.99 46.6795C105.842 45.1175 106.227 43.3615 106.103 41.6044L105.729 41.6309ZM104.661 46.5L104.331 46.3205C103.548 47.7581 102.362 48.9674 100.901 49.8153L101.089 50.1396L101.278 50.464C102.853 49.5491 104.138 48.2412 104.99 46.6795L104.661 46.5ZM101.089 50.1396L100.901 49.8153C99.9113 50.39 98.8201 50.7826 97.6855 50.9791L97.7495 51.3486L97.8135 51.7181C99.0337 51.5068 100.209 51.0842 101.278 50.464L101.089 50.1396ZM97.7495 51.3486H97.3745V53.25H97.7495H98.1245V51.3486H97.7495ZM97.7495 53.25L97.3745 53.25C97.3744 54.1474 96.6469 54.875 95.7495 54.875V55.25V55.625C97.0612 55.625 98.1244 54.5616 98.1245 53.25L97.7495 53.25ZM95.7495 55.25L95.7496 54.875C94.8523 54.8748 94.1246 54.1472 94.1245 53.25L93.7495 53.25L93.3745 53.25C93.3746 54.5615 94.4381 55.6247 95.7494 55.625L95.7495 55.25ZM93.7495 53.25H94.1245V49.5H93.7495H93.3745V53.25H93.7495ZM93.7495 49.5H94.1245C94.1245 48.6028 94.8522 47.8752 95.7496 47.875L95.7495 47.5L95.7494 47.125C94.4381 47.1253 93.3745 48.1884 93.3745 49.5H93.7495ZM95.7495 47.5V47.875C95.7834 47.875 95.82 47.8773 95.869 47.8809L95.896 47.5068L95.923 47.1328C95.8755 47.1294 95.8139 47.125 95.7495 47.125V47.5ZM95.896 47.5068L95.9224 47.8809C95.9716 47.8774 96.0019 47.8751 96.0315 47.875L96.0298 47.5L96.0281 47.125C95.9679 47.1253 95.9086 47.13 95.8696 47.1328L95.896 47.5068ZM96.0298 47.5L96.0316 47.875C97.1868 47.8695 98.3077 47.5635 99.2698 47.005L99.0815 46.6807L98.8933 46.3564C98.0461 46.8482 97.0541 47.1201 96.028 47.125L96.0298 47.5ZM99.0815 46.6807L99.2698 47.005C100.231 46.447 100.987 45.6651 101.478 44.7645L101.149 44.585L100.82 44.4054C100.396 45.1821 99.7389 45.8654 98.8932 46.3564L99.0815 46.6807ZM101.149 44.585L101.478 44.7645C101.968 43.8659 102.182 42.8717 102.113 41.8867L101.739 41.9131L101.365 41.9395C101.424 42.7799 101.242 43.6314 100.82 44.4055L101.149 44.585ZM101.739 41.9131L102.113 41.8866C102.043 40.9013 101.69 39.9352 101.07 39.0956L100.768 39.3184L100.466 39.5411C101.003 40.2684 101.305 41.0988 101.365 41.9395L101.739 41.9131ZM100.768 39.3184L101.07 39.0956C100.448 38.2538 99.5763 37.5664 98.5349 37.1306L98.3901 37.4766L98.2454 37.8225C99.1656 38.2075 99.9275 38.8115 100.466 39.5412L100.768 39.3184ZM98.3901 37.4766L98.5348 37.1306C97.4924 36.6946 96.3334 36.5339 95.1891 36.6747L95.2349 37.0469L95.2806 37.4191C96.2964 37.2941 97.3241 37.4371 98.2454 37.8225L98.3901 37.4766ZM95.2349 37.0469L95.189 36.6747C94.0451 36.8155 92.9804 37.249 92.1082 37.909L92.3345 38.208L92.5607 38.5071C93.3255 37.9284 94.2651 37.5441 95.2807 37.4191L95.2349 37.0469ZM92.3345 38.208L92.1082 37.909C91.2375 38.5679 90.5967 39.4222 90.231 40.3632L90.5806 40.499L90.9301 40.6349C91.2441 39.827 91.7978 39.0844 92.5608 38.507L92.3345 38.208ZM90.5806 40.499L90.231 40.3632C89.906 41.1995 88.9637 41.6147 88.1274 41.2901L87.9917 41.6396L87.856 41.9892C89.0785 42.4638 90.4551 41.857 90.9301 40.6349L90.5806 40.499ZM87.9917 41.6396L88.1276 41.2901C87.2914 40.9651 86.8767 40.0231 87.2016 39.1865L86.8521 39.0508L86.5025 38.915C86.0278 40.1373 86.6334 41.514 87.8558 41.9892L87.9917 41.6396ZM86.8521 39.0508L87.2016 39.1866C87.7913 37.6688 88.809 36.3299 90.1467 35.3176L89.9204 35.0186L89.6941 34.7195C88.2487 35.8134 87.144 37.264 86.5025 38.915L86.8521 39.0508ZM89.9204 35.0186L90.1467 35.3176C91.4843 34.3054 93.0906 33.6588 94.7914 33.4493L94.7456 33.0771L94.6998 32.705C92.8706 32.9302 91.1392 33.626 89.6941 34.7195L89.9204 35.0186Z" fill="#102000" mask="url(#path-20-inside-5_3985_3409)"/>
<path d="M82.125 92.5625C82.2138 92.5625 82.2905 92.6249 82.3086 92.7119L83.6211 99.0244L90.0371 100.316C90.1246 100.334 90.1875 100.411 90.1875 100.5C90.1875 100.589 90.1246 100.666 90.0371 100.684L83.6211 101.975L82.3086 108.288C82.2905 108.375 82.2138 108.437 82.125 108.438C82.0362 108.438 81.9595 108.375 81.9414 108.288L80.6279 101.975L74.2129 100.684C74.1254 100.666 74.0625 100.589 74.0625 100.5C74.0625 100.411 74.1254 100.334 74.2129 100.316L80.6279 99.0244L81.9414 92.7119C81.9595 92.6249 82.0362 92.5625 82.125 92.5625Z" fill="white" stroke="#0D0D0D" stroke-width="0.375" stroke-linejoin="round"/>
<path d="M33.375 31.0625C33.4638 31.0625 33.5405 31.1249 33.5586 31.2119L34.8711 37.5244L41.2871 38.8164C41.3746 38.8341 41.4375 38.9108 41.4375 39C41.4375 39.0892 41.3746 39.1659 41.2871 39.1836L34.8711 40.4746L33.5586 46.7881C33.5405 46.8751 33.4638 46.9375 33.375 46.9375C33.2862 46.9375 33.2095 46.8751 33.1914 46.7881L31.8779 40.4746L25.4629 39.1836C25.3754 39.1659 25.3125 39.0892 25.3125 39C25.3125 38.9108 25.3754 38.8341 25.4629 38.8164L31.8779 37.5244L33.1914 31.2119C33.2095 31.1249 33.2862 31.0625 33.375 31.0625Z" fill="white" stroke="#0D0D0D" stroke-width="0.375" stroke-linejoin="round"/>
</g>
<defs>
<clipPath id="clip0_3985_3409">
<rect width="128" height="128" fill="white"/>
</clipPath>
</defs>
</svg>
