<svg width="16" height="16" viewBox="0 0 16 16" fill="none" xmlns="http://www.w3.org/2000/svg">
<path d="M10.6666 1.33334H5.33325C2.66659 1.33334 1.33325 2.66668 1.33325 5.33334V14C1.33325 14.3667 1.63325 14.6667 1.99992 14.6667H10.6666C13.3333 14.6667 14.6666 13.3333 14.6666 10.6667V5.33334C14.6666 2.66668 13.3333 1.33334 10.6666 1.33334Z" stroke="#0D0D0D" stroke-width="1.33" stroke-linecap="round" stroke-linejoin="round"/>
<path d="M8.60661 5.22668L5.14661 8.68668C5.01328 8.82001 4.88661 9.08001 4.85995 9.26668L4.67328 10.5867C4.60661 11.0667 4.93994 11.4 5.41994 11.3333L6.73993 11.1467C6.9266 11.12 7.18662 10.9933 7.31995 10.86L10.78 7.40001C11.3733 6.80668 11.66 6.11334 10.78 5.23334C9.89995 4.34668 9.20661 4.62668 8.60661 5.22668Z" stroke="#0D0D0D" stroke-width="1.33" stroke-miterlimit="10" stroke-linecap="round" stroke-linejoin="round"/>
<path d="M8.11328 5.72C8.40661 6.76667 9.22661 7.59333 10.2799 7.88667" stroke="#0D0D0D" stroke-width="1.33" stroke-miterlimit="10" stroke-linecap="round" stroke-linejoin="round"/>
</svg>
