<svg width="16" height="16" viewBox="0 0 16 16" fill="none" xmlns="http://www.w3.org/2000/svg">
<path d="M3.33333 6.66667C2.6 6.66667 2 7.26667 2 8.00001C2 8.73334 2.6 9.33334 3.33333 9.33334C4.06667 9.33334 4.66667 8.73334 4.66667 8.00001C4.66667 7.26667 4.06667 6.66667 3.33333 6.66667Z" fill="#0D0D0D"/>
<path d="M12.6667 6.66667C11.9334 6.66667 11.3334 7.26667 11.3334 8.00001C11.3334 8.73334 11.9334 9.33334 12.6667 9.33334C13.4 9.33334 14 8.73334 14 8.00001C14 7.26667 13.4 6.66667 12.6667 6.66667Z" fill="#0D0D0D"/>
<path d="M7.99996 6.66667C7.26663 6.66667 6.66663 7.26667 6.66663 8.00001C6.66663 8.73334 7.26663 9.33334 7.99996 9.33334C8.73329 9.33334 9.33329 8.73334 9.33329 8.00001C9.33329 7.26667 8.73329 6.66667 7.99996 6.66667Z" fill="#0D0D0D"/>
</svg>
