<svg width="128" height="128" viewBox="0 0 128 128" fill="none" xmlns="http://www.w3.org/2000/svg">
<path d="M30.2023 36.6328C30.08 33.3405 32.7153 30.6047 36.0099 30.6045L42.6515 30.6045C47.025 30.6045 51.3174 29.4183 55.0704 27.1729L65.7989 20.7539C67.6365 19.6545 69.9301 19.6545 71.7677 20.7539L82.4962 27.1728C86.2493 29.4183 90.5416 30.6045 94.9152 30.6045L101.557 30.6045C104.851 30.6047 107.487 33.3405 107.364 36.6328L105.773 79.4912C105.457 87.9883 100.635 95.6723 93.1202 99.6514L71.5031 111.098C69.8018 111.998 67.7649 111.998 66.0636 111.098L44.4464 99.6514C36.932 95.6723 32.1097 87.9883 31.7941 79.4912L30.2023 36.6328Z" fill="#0D0D0D" stroke="#0D0D0D" stroke-width="0.375"/>
<path d="M23.9523 33.1328C23.83 29.8405 26.4653 27.1047 29.7599 27.1045L36.4015 27.1045C40.775 27.1045 45.0674 25.9183 48.8204 23.6729L59.5489 17.2539C61.3865 16.1545 63.6801 16.1545 65.5177 17.2539L76.2462 23.6728C79.9993 25.9183 84.2916 27.1045 88.6652 27.1045L95.3068 27.1045C98.6013 27.1047 101.237 29.8405 101.114 33.1328L99.5226 75.9912C99.2069 84.4883 94.3847 92.1723 86.8702 96.1514L65.2531 107.598C63.5518 108.498 61.5149 108.498 59.8136 107.598L38.1964 96.1514C30.682 92.1723 25.8597 84.4883 25.5441 75.9912L23.9523 33.1328Z" fill="white" stroke="#0D0D0D" stroke-width="0.375"/>
<path d="M30.2003 38.5811C30.079 35.2892 32.7148 32.5547 36.0089 32.5547L39.4864 32.5547C43.8857 32.5547 48.2018 31.3545 51.9698 29.084L59.5333 24.5264C61.3787 23.4144 63.688 23.4144 65.5333 24.5264L73.0968 29.084C76.8649 31.3545 81.1809 32.5547 85.5802 32.5547L89.0577 32.5547C92.3518 32.5547 94.9876 35.2892 94.8663 38.5811L93.6417 71.7783C93.3292 80.2528 88.5337 87.9217 81.0509 91.9121L65.2687 100.329C63.5592 101.241 61.5074 101.241 59.798 100.329L44.0157 91.9121C36.533 87.9217 31.7375 80.2528 31.4249 71.7783L30.2003 38.5811Z" fill="white" stroke="#0D0D0D" stroke-width="0.375"/>
<mask id="path-4-inside-1_2898_6807" fill="white">
<path d="M65.6301 24.3659C63.7253 23.2181 61.3416 23.2181 59.4368 24.3659L51.8733 28.9235C48.1345 31.1764 43.8517 32.3668 39.4866 32.3669H36.009C32.6086 32.3669 29.8876 35.1905 30.0129 38.5886L31.2375 71.7858C31.5358 79.8678 35.8808 87.2204 42.7366 91.3952C37.3377 87.0799 33.9977 80.5857 33.7375 73.5358L32.5129 40.3386C32.3876 36.9405 35.1086 34.1169 38.509 34.1169H41.9866C46.3517 34.1168 50.6345 32.9264 54.3733 30.6735L61.9368 26.1159C63.8416 24.9681 66.2253 24.9681 68.1301 26.1159L75.6936 30.6735C79.4325 32.9265 83.7151 34.1169 88.0803 34.1169H91.5579C92.2877 34.1169 92.9863 34.2472 93.6321 34.485C92.5333 33.1915 90.895 32.3669 89.0579 32.3669H85.5803C81.2151 32.3669 76.9325 31.1765 73.1936 28.9235L65.6301 24.3659Z"/>
</mask>
<path d="M65.6301 24.3659C63.7253 23.2181 61.3416 23.2181 59.4368 24.3659L51.8733 28.9235C48.1345 31.1764 43.8517 32.3668 39.4866 32.3669H36.009C32.6086 32.3669 29.8876 35.1905 30.0129 38.5886L31.2375 71.7858C31.5358 79.8678 35.8808 87.2204 42.7366 91.3952C37.3377 87.0799 33.9977 80.5857 33.7375 73.5358L32.5129 40.3386C32.3876 36.9405 35.1086 34.1169 38.509 34.1169H41.9866C46.3517 34.1168 50.6345 32.9264 54.3733 30.6735L61.9368 26.1159C63.8416 24.9681 66.2253 24.9681 68.1301 26.1159L75.6936 30.6735C79.4325 32.9265 83.7151 34.1169 88.0803 34.1169H91.5579C92.2877 34.1169 92.9863 34.2472 93.6321 34.485C92.5333 33.1915 90.895 32.3669 89.0579 32.3669H85.5803C81.2151 32.3669 76.9325 31.1765 73.1936 28.9235L65.6301 24.3659Z" fill="#0D0D0D"/>
<path d="M65.6301 24.3659L65.8237 24.0447L65.8237 24.0447L65.6301 24.3659ZM59.4368 24.3659L59.2432 24.0447L59.2432 24.0447L59.4368 24.3659ZM51.8733 28.9235L52.0668 29.2447L52.0668 29.2447L51.8733 28.9235ZM39.4866 32.3669L39.4866 32.7419H39.4866V32.3669ZM36.009 32.3669V31.9919V31.9919V32.3669ZM30.0129 38.5886L29.6382 38.6024V38.6024L30.0129 38.5886ZM31.2375 71.7858L30.8628 71.7997V71.7997L31.2375 71.7858ZM42.7366 91.3952L42.9707 91.1023L42.5415 91.7155L42.7366 91.3952ZM33.7375 73.5358L33.3628 73.5497V73.5497L33.7375 73.5358ZM32.5129 40.3386L32.1382 40.3524V40.3524L32.5129 40.3386ZM38.509 34.1169V33.7419V33.7419V34.1169ZM41.9866 34.1169L41.9866 34.4919H41.9866V34.1169ZM54.3733 30.6735L54.5668 30.9947L54.5668 30.9947L54.3733 30.6735ZM61.9368 26.1159L61.7432 25.7947L61.7432 25.7947L61.9368 26.1159ZM68.1301 26.1159L68.3237 25.7947L68.3237 25.7947L68.1301 26.1159ZM75.6936 30.6735L75.5001 30.9947L75.5001 30.9947L75.6936 30.6735ZM88.0803 34.1169V33.7419V33.7419V34.1169ZM91.5579 34.1169V34.4919V34.4919V34.1169ZM93.6321 34.485L93.9179 34.2423L94.8421 35.3304L93.5025 34.8369L93.6321 34.485ZM89.0579 32.3669V32.7419V32.7419V32.3669ZM85.5803 32.3669V31.9919V31.9919V32.3669ZM73.1936 28.9235L73.0001 29.2447L73.0001 29.2447L73.1936 28.9235ZM65.6301 24.3659L65.4366 24.6871C63.6508 23.611 61.4161 23.6111 59.6303 24.6871L59.4368 24.3659L59.2432 24.0447C61.2672 22.8252 63.7997 22.8252 65.8237 24.0447L65.6301 24.3659ZM59.4368 24.3659L59.6303 24.6871L52.0668 29.2447L51.8733 28.9235L51.6797 28.6023L59.2432 24.0447L59.4368 24.3659ZM51.8733 28.9235L52.0668 29.2447C48.2696 31.5328 43.9199 32.7418 39.4866 32.7419L39.4866 32.3669L39.4866 31.9919C43.7835 31.9918 47.9993 30.82 51.6797 28.6023L51.8733 28.9235ZM39.4866 32.3669V32.7419H36.009V32.3669V31.9919H39.4866V32.3669ZM36.009 32.3669V32.7419C32.8212 32.7419 30.2702 35.389 30.3877 38.5747L30.0129 38.5886L29.6382 38.6024C29.505 34.9919 32.3961 31.9919 36.009 31.9919V32.3669ZM30.0129 38.5886L30.3877 38.5747L31.6123 71.772L31.2375 71.7858L30.8628 71.7997L29.6382 38.6024L30.0129 38.5886ZM31.2375 71.7858L31.6123 71.772C31.9058 79.7276 36.1829 86.9653 42.9316 91.0749L42.7366 91.3952L42.5415 91.7155C35.5786 87.4754 31.1657 80.008 30.8628 71.7997L31.2375 71.7858ZM42.7366 91.3952L42.5024 91.6881C37.0193 87.3055 33.627 80.7099 33.3628 73.5497L33.7375 73.5358L34.1123 73.522C34.3683 80.4616 37.6561 86.8543 42.9707 91.1023L42.7366 91.3952ZM33.7375 73.5358L33.3628 73.5497L32.1382 40.3524L32.5129 40.3386L32.8877 40.3247L34.1123 73.522L33.7375 73.5358ZM32.5129 40.3386L32.1382 40.3524C32.005 36.7419 34.8961 33.7419 38.509 33.7419V34.1169V34.4919C35.3212 34.4919 32.7702 37.139 32.8877 40.3247L32.5129 40.3386ZM38.509 34.1169V33.7419H41.9866V34.1169V34.4919H38.509V34.1169ZM41.9866 34.1169L41.9866 33.7419C46.2835 33.7418 50.4993 32.57 54.1797 30.3523L54.3733 30.6735L54.5668 30.9947C50.7696 33.2828 46.4199 34.4918 41.9866 34.4919L41.9866 34.1169ZM54.3733 30.6735L54.1797 30.3523L61.7432 25.7947L61.9368 26.1159L62.1303 26.4371L54.5668 30.9947L54.3733 30.6735ZM61.9368 26.1159L61.7432 25.7947C63.7672 24.5752 66.2997 24.5752 68.3237 25.7947L68.1301 26.1159L67.9366 26.4371C66.1508 25.361 63.9161 25.3611 62.1303 26.4371L61.9368 26.1159ZM68.1301 26.1159L68.3237 25.7947L75.8871 30.3523L75.6936 30.6735L75.5001 30.9947L67.9366 26.4371L68.1301 26.1159ZM75.6936 30.6735L75.8871 30.3523C79.5676 32.5701 83.7833 33.7419 88.0803 33.7419V34.1169V34.4919C83.6469 34.4919 79.2974 33.2829 75.5001 30.9947L75.6936 30.6735ZM88.0803 34.1169V33.7419H91.5579V34.1169V34.4919H88.0803V34.1169ZM91.5579 34.1169V33.7419C92.3326 33.7419 93.0751 33.8803 93.7617 34.1332L93.6321 34.485L93.5025 34.8369C92.8975 34.6141 92.2427 34.4919 91.5579 34.4919V34.1169ZM93.6321 34.485L93.3463 34.7278C92.3155 33.5143 90.78 32.7419 89.0579 32.7419V32.3669V31.9919C91.01 31.9919 92.7512 32.8687 93.9179 34.2423L93.6321 34.485ZM89.0579 32.3669V32.7419H85.5803V32.3669V31.9919H89.0579V32.3669ZM85.5803 32.3669V32.7419C81.1469 32.7419 76.7974 31.5329 73.0001 29.2447L73.1936 28.9235L73.3871 28.6023C77.0676 30.8201 81.2833 31.9919 85.5803 31.9919V32.3669ZM73.1936 28.9235L73.0001 29.2447L65.4366 24.6871L65.6301 24.3659L65.8237 24.0447L73.3871 28.6023L73.1936 28.9235Z" fill="#0D0D0D" mask="url(#path-4-inside-1_2898_6807)"/>
<circle cx="21.75" cy="21.75" r="21.5625" transform="matrix(-1 0 0 1 88.0333 40.5)" fill="#0D0D0D" stroke="#0D0D0D" stroke-width="0.375"/>
<circle cx="21.75" cy="21.75" r="21.5625" transform="matrix(-1 0 0 1 81.5333 40.5)" fill="white" stroke="#0D0D0D" stroke-width="0.375"/>
<path d="M49.8119 44.0672L52.6895 54.4252L61.8013 59.0307L52.9048 59.6126L48.6939 68.1417L50.5814 78.4642L46.2178 72.4304L37.9014 81.6866L41.7592 69.8563L26.6726 67.877L40.3419 62.4262L33.4757 58.4619L42.332 57.0229L37.6603 48.8456L47.8706 54.7405L49.8119 44.0672Z" fill="#B5FF00" stroke="#0D0D0D" stroke-width="0.375"/>
<path d="M59.9083 47.1875C51.5191 47.1875 44.7208 53.9327 44.7208 62.25C44.7208 70.5673 51.5191 77.3125 59.9083 77.3125C68.2976 77.3125 75.0958 70.5673 75.0958 62.25C75.0958 53.9327 68.2976 47.1875 59.9083 47.1875Z" fill="white" stroke="#0D0D0D" stroke-width="0.375"/>
<mask id="path-10-inside-2_2898_6807" fill="white">
<path d="M59.814 53.0351C57.1922 53.0351 55.0669 55.1604 55.0669 57.7822C55.0669 59.5958 56.0847 61.1704 57.5796 61.9697V70.1855C57.5796 70.7376 58.0275 71.1852 58.5796 71.1855H60.769C61.3211 71.1853 61.769 70.7376 61.769 70.1855V62.1074C63.4151 61.3621 64.561 59.7067 64.561 57.7822C64.561 55.1604 62.4357 53.0351 59.814 53.0351Z"/>
</mask>
<path d="M59.814 53.0351C57.1922 53.0351 55.0669 55.1604 55.0669 57.7822C55.0669 59.5958 56.0847 61.1704 57.5796 61.9697V70.1855C57.5796 70.7376 58.0275 71.1852 58.5796 71.1855H60.769C61.3211 71.1853 61.769 70.7376 61.769 70.1855V62.1074C63.4151 61.3621 64.561 59.7067 64.561 57.7822C64.561 55.1604 62.4357 53.0351 59.814 53.0351Z" fill="white"/>
<path d="M59.814 53.0351V52.6601H59.814L59.814 53.0351ZM55.0669 57.7822H54.6919V57.7822L55.0669 57.7822ZM57.5796 61.9697L57.7564 61.639L57.9546 61.7449V61.9697H57.5796ZM58.5796 71.1855V71.5605H58.5794L58.5796 71.1855ZM60.769 71.1855L60.7692 71.5605H60.769V71.1855ZM61.769 62.1074H61.394V61.8655L61.6144 61.7657L61.769 62.1074ZM64.561 57.7822L64.936 57.7822V57.7822H64.561ZM59.814 53.0351V53.4101C57.3993 53.4101 55.4419 55.3675 55.4419 57.7822L55.0669 57.7822L54.6919 57.7822C54.6919 54.9533 56.9851 52.6601 59.814 52.6601V53.0351ZM55.0669 57.7822H55.4419C55.4419 59.4518 56.3785 60.9022 57.7564 61.639L57.5796 61.9697L57.4028 62.3004C55.791 61.4385 54.6919 59.7398 54.6919 57.7822H55.0669ZM57.5796 61.9697H57.9546V70.1855H57.5796H57.2046V61.9697H57.5796ZM57.5796 70.1855H57.9546C57.9546 70.5304 58.2345 70.8103 58.5798 70.8105L58.5796 71.1855L58.5794 71.5605C57.8205 71.5602 57.2046 70.9449 57.2046 70.1855H57.5796ZM58.5796 71.1855V70.8105H60.769V71.1855V71.5605H58.5796V71.1855ZM60.769 71.1855L60.7689 70.8105C61.1141 70.8103 61.394 70.5304 61.394 70.1855H61.769H62.144C62.144 70.9449 61.5281 71.5602 60.7692 71.5605L60.769 71.1855ZM61.769 70.1855H61.394V62.1074H61.769H62.144V70.1855H61.769ZM61.769 62.1074L61.6144 61.7657C63.1315 61.0789 64.186 59.5538 64.186 57.7822H64.561H64.936C64.936 59.8595 63.6988 61.6453 61.9237 62.449L61.769 62.1074ZM64.561 57.7822L64.186 57.7822C64.186 55.3675 62.2286 53.4101 59.814 53.4101L59.814 53.0351L59.814 52.6601C62.6428 52.6601 64.936 54.9533 64.936 57.7822L64.561 57.7822Z" fill="#0D0D0D" mask="url(#path-10-inside-2_2898_6807)"/>
<path d="M59.6661 53C57.0445 53.0001 54.9191 55.1254 54.9191 57.7471C54.9191 59.5606 55.937 61.1352 57.4318 61.9346V70.1504C57.4318 70.7025 57.8798 71.15 58.4318 71.1504H60.6212C60.6498 71.1504 60.6782 71.1479 60.7062 71.1455C60.1254 71.1058 59.6661 70.6241 59.6661 70.0332V61.9365C58.1707 61.1374 57.1534 59.5611 57.1534 57.7471C57.1534 55.5101 58.7006 53.6352 60.7833 53.1328C60.4251 53.0464 60.0509 53 59.6661 53Z" fill="#0D0D0D"/>
<path d="M85.25 20.8125C85.1608 20.8125 85.0841 20.8754 85.0664 20.9629L83.7754 27.3779L77.4619 28.6914C77.3749 28.7095 77.3125 28.7862 77.3125 28.875C77.3125 28.9638 77.3749 29.0405 77.4619 29.0586L83.7754 30.3711L85.0664 36.7871C85.0841 36.8746 85.1608 36.9375 85.25 36.9375C85.3392 36.9375 85.4159 36.8746 85.4336 36.7871L86.7256 30.3711L93.0381 29.0586C93.1251 29.0405 93.1875 28.9638 93.1875 28.875C93.1875 28.7862 93.1251 28.7095 93.0381 28.6914L86.7256 27.3779L85.4336 20.9629L85.4102 20.9023C85.3769 20.8478 85.3169 20.8125 85.25 20.8125Z" fill="white" stroke="#0D0D0D" stroke-width="0.375" stroke-linejoin="round"/>
<path d="M27.125 82.8125C27.2141 82.8125 27.2907 82.8756 27.3086 82.9629L28.4512 88.5479L34.0371 89.6914C34.1244 89.7093 34.1875 89.7859 34.1875 89.875C34.1875 89.9641 34.1244 90.0407 34.0371 90.0586L28.4512 91.2012L27.3086 96.7871C27.2907 96.8744 27.2141 96.9375 27.125 96.9375C27.0359 96.9375 26.9593 96.8744 26.9414 96.7871L25.7979 91.2012L20.2129 90.0586C20.1256 90.0407 20.0625 89.9641 20.0625 89.875C20.0625 89.7859 20.1256 89.7093 20.2129 89.6914L25.7979 88.5479L26.9414 82.9629L26.9648 82.9023C26.9981 82.8478 27.0581 82.8125 27.125 82.8125Z" fill="white" stroke="#0D0D0D" stroke-width="0.375" stroke-linejoin="round"/>
</svg>
