<svg width="18" height="20" viewBox="0 0 18 20" fill="none" xmlns="http://www.w3.org/2000/svg">
<path d="M5 0C5.69141 0 6.25 0.558594 6.25 1.25V2.5H11.25V1.25C11.25 0.558594 11.8086 0 12.5 0C13.1914 0 13.75 0.558594 13.75 1.25V2.5H15.625C16.6602 2.5 17.5 3.33984 17.5 4.375V6.25H0V4.375C0 3.33984 0.839844 2.5 1.875 2.5H3.75V1.25C3.75 0.558594 4.30859 0 5 0ZM0 7.5H17.5V18.125C17.5 19.1602 16.6602 20 15.625 20H1.875C0.839844 20 0 19.1602 0 18.125V7.5ZM3.125 10C2.78125 10 2.5 10.2812 2.5 10.625V14.375C2.5 14.7188 2.78125 15 3.125 15H6.875C7.21875 15 7.5 14.7188 7.5 14.375V10.625C7.5 10.2812 7.21875 10 6.875 10H3.125Z" fill="#9E9E9E"/>
</svg>
