<svg width="24" height="24" viewBox="0 0 24 24" fill="none" xmlns="http://www.w3.org/2000/svg">
<path d="M3 12C3 16.4183 7.02944 20 12 20C13.0519 20 14.0617 19.8396 15 19.5448C17.0442 18.9025 17.8445 21.4293 20.1971 20.8101C20.5684 20.7123 20.6054 20.227 20.3336 19.9559C19.2917 18.9165 18.8785 17.4097 19.796 16C20.5617 14.8233 21 13.4571 21 12C21 7.58172 16.9706 4 12 4C7.02944 4 3 7.58172 3 12Z" stroke="#0D0D0D" stroke-width="2"/>
<line x1="12" y1="9" x2="12" y2="15" stroke="#0D0D0D" stroke-width="2" stroke-linecap="round"/>
<line x1="9" y1="12" x2="15" y2="12" stroke="#0D0D0D" stroke-width="2" stroke-linecap="round"/>
</svg>
