<svg width="21" height="18" viewBox="0 0 21 18" fill="none" xmlns="http://www.w3.org/2000/svg">
<path d="M11.141 0.632812C10.9547 0.246094 10.561 0 10.1285 0C9.69611 0 9.30588 0.246094 9.11603 0.632812L6.85549 5.28398L1.80705 6.0293C1.38518 6.09258 1.03361 6.38789 0.903535 6.79219C0.773457 7.19648 0.878925 7.64297 1.18127 7.9418L4.84455 11.5664L3.97971 16.6887C3.90939 17.1105 4.08518 17.5395 4.43322 17.7891C4.78127 18.0387 5.24182 18.0703 5.6215 17.8699L10.1321 15.4617L14.6426 17.8699C15.0223 18.0703 15.4828 18.0422 15.8309 17.7891C16.1789 17.5359 16.3547 17.1105 16.2844 16.6887L15.416 11.5664L19.0793 7.9418C19.3817 7.64297 19.4906 7.19648 19.357 6.79219C19.2235 6.38789 18.8754 6.09258 18.4535 6.0293L13.4016 5.28398L11.141 0.632812Z" fill="#0D0D0D"/>
</svg>
