<svg width="24" height="24" viewBox="0 0 24 24" fill="none" xmlns="http://www.w3.org/2000/svg">
<path d="M19 19L21 21M19 11C19 15.4183 15.4183 19 11 19C6.58172 19 3 15.4183 3 11C3 6.58172 6.58172 3 11 3C11.6906 3 12.3608 3.08751 13 3.25203" stroke="#0D0D0D" stroke-width="2" stroke-linecap="round"/>
<path d="M18.2496 2.02762C18.5073 1.33113 19.4924 1.33113 19.7502 2.02762L20.2227 3.30457C20.3037 3.52354 20.4764 3.69619 20.6953 3.77722L21.9723 4.24973C22.6688 4.50746 22.6688 5.49257 21.9723 5.7503L20.6953 6.22281C20.4764 6.30384 20.3037 6.47649 20.2227 6.69546L19.7502 7.97241C19.4924 8.6689 18.5073 8.6689 18.2496 7.97241L17.7771 6.69546C17.6961 6.47649 17.5234 6.30384 17.3044 6.22281L16.0275 5.7503C15.331 5.49257 15.331 4.50746 16.0275 4.24973L17.3044 3.77722C17.5234 3.69619 17.6961 3.52354 17.7771 3.30457L18.2496 2.02762Z" fill="#0D0D0D"/>
</svg>
