<svg width="20" height="20" viewBox="0 0 20 20" fill="none" xmlns="http://www.w3.org/2000/svg">
<path d="M10 20C15.5191 20 20 15.5191 20 10C20 4.48085 15.5191 0 10 0C4.48085 0 0 4.48085 0 10C0 15.5191 4.48085 20 10 20ZM14.4141 8.16406L9.41406 13.1641C9.04688 13.5312 8.45312 13.5312 8.08984 13.1641L5.58984 10.6641C5.22266 10.2969 5.22266 9.70312 5.58984 9.33984Cnan nan 6.55078 8.97266 6.91406 9.33984L8.75 11.1758L13.0859 6.83594C13.4531 6.46875 14.0469 6.46875 14.4102 6.83594Cnan nan 14.7773 7.79688 14.4102 8.16016L14.4141 8.16406Z" fill="#9E9E9E"/>
</svg>
