<svg width="16" height="16" viewBox="0 0 16 16" fill="none" xmlns="http://www.w3.org/2000/svg">
<path d="M10.6668 8.60065V11.4007C10.6668 13.734 9.7335 14.6673 7.40016 14.6673H4.60016C2.26683 14.6673 1.3335 13.734 1.3335 11.4007V8.60065C1.3335 6.26732 2.26683 5.33398 4.60016 5.33398H7.40016C9.7335 5.33398 10.6668 6.26732 10.6668 8.60065Z" fill="#0D0D0D" stroke="#0D0D0D" stroke-width="1.33" stroke-linecap="round" stroke-linejoin="round"/>
<path d="M14.6668 4.60065V7.40065C14.6668 9.73398 13.7335 10.6673 11.4002 10.6673H10.6668V8.60065C10.6668 6.26732 9.7335 5.33398 7.40016 5.33398H5.3335V4.60065C5.3335 2.26732 6.26683 1.33398 8.60016 1.33398H11.4002C13.7335 1.33398 14.6668 2.26732 14.6668 4.60065Z" stroke="#0D0D0D" stroke-width="1.33" stroke-linecap="round" stroke-linejoin="round"/>
</svg>
