<svg width="16" height="16" viewBox="0 0 16 16" fill="none" xmlns="http://www.w3.org/2000/svg">
<g clip-path="url(#clip0_2027_10126)">
<path d="M1.79084 10.43L3.06297 9.69562C3.13188 9.65584 3.21274 9.64202 3.29094 9.65665L5.79394 10.1251C5.99964 10.1636 6.18953 10.0052 6.1886 9.79598L6.17885 7.60289C6.17858 7.5433 6.1943 7.48473 6.22435 7.43328L7.4875 5.27073C7.55324 5.15818 7.54735 5.01764 7.47242 4.91099L5.34562 1.88371M12.6665 3.23929C8.99981 4.99995 10.9997 7.33328 11.6665 7.66661C12.9179 8.2922 14.6581 8.33325 14.6581 8.33325C14.6635 8.22282 14.6663 8.11169 14.6663 7.99992C14.6663 4.31802 11.6816 1.33325 7.99967 1.33325C4.31778 1.33325 1.33301 4.31802 1.33301 7.99992C1.33301 11.6818 4.31778 14.6666 7.99967 14.6666C8.11145 14.6666 8.22258 14.6638 8.33301 14.6584M11.1715 14.6264L9.06034 9.06059L14.6262 11.1718L12.1581 12.1583L11.1715 14.6264Z" stroke="#B5FF00" stroke-width="1.33333" stroke-linecap="round" stroke-linejoin="round"/>
</g>
<defs>
<clipPath id="clip0_2027_10126">
<rect width="16" height="16" fill="white"/>
</clipPath>
</defs>
</svg>
