<svg width="112" height="128" viewBox="0 0 112 128" fill="none" xmlns="http://www.w3.org/2000/svg">
<path d="M72 0H40H32C27.575 0 24 3.575 24 8C24 12.425 27.575 16 32 16V49.2C32 52.15 31.175 55.075 29.625 57.575L2.575 101.55C0.9 104.3 0 107.425 0 110.65C0 120.225 7.775 128 17.35 128H94.65C104.225 128 112 120.225 112 110.65C112 107.45 111.1 104.3 109.425 101.55L82.375 57.6C80.825 55.075 80 52.175 80 49.225V16C84.425 16 88 12.425 88 8C88 3.575 84.425 0 80 0H72ZM48 49.2V16H64V49.2C64 55.125 65.65 60.925 68.75 65.975L77.375 80H34.625L43.25 65.975C46.35 60.925 48 55.125 48 49.2Z" fill="white"/>
</svg>
